0, 0, Header, 1, 4, 384
1, 0, Start_track
1, 0, Tempo, 526316
1, 0, Key_signature, 0, "major"
1, 0, Time_signature, 4, 2, 24, 8
1, 0, End_track
2, 0, Start_track
2, 0, Control_c, 0, 0, 0
2, 0, Control_c, 0, 32, 0
2, 0, Program_c, 0, 5
2, 0, Title_t, "E.PIANO 2"
2, 0, Control_c, 0, 7, 127
2, 1932, Control_c, 0, 10, 64
2, 1932, Control_c, 0, 11, 127
2, 1932, Control_c, 0, 7, 105
2, 1936, Control_c, 0, 93, 30
2, 1936, Control_c, 0, 91, 50
2, 4636, Note_on_c, 0, 65, 84
2, 4640, Pitch_bend_c, 0, 8192
2, 4640, Control_c, 0, 1, 0
2, 4640, Note_on_c, 0, 61, 60
2, 4640, Note_on_c, 0, 54, 60
2, 4648, Note_on_c, 0, 58, 60
2, 5036, Note_off_c, 0, 61, 0
2, 5052, Note_off_c, 0, 54, 0
2, 5072, Note_off_c, 0, 65, 0
2, 5112, Note_off_c, 0, 58, 0
2, 5192, Note_on_c, 0, 63, 71
2, 5204, Note_on_c, 0, 56, 58
2, 5204, Note_on_c, 0, 60, 62
2, 5204, Note_on_c, 0, 58, 51
2, 5996, Note_off_c, 0, 60, 0
2, 6008, Note_off_c, 0, 56, 0
2, 6016, Note_off_c, 0, 63, 0
2, 6048, Note_off_c, 0, 58, 0
2, 6132, Note_on_c, 0, 63, 75
2, 6140, Note_on_c, 0, 60, 68
2, 6140, Note_on_c, 0, 56, 62
2, 6608, Note_off_c, 0, 56, 0
2, 6636, Note_off_c, 0, 63, 0
2, 6640, Note_off_c, 0, 60, 0
2, 6724, Note_on_c, 0, 61, 71
2, 6732, Note_on_c, 0, 53, 62
2, 6732, Note_on_c, 0, 56, 68
2, 7484, Note_off_c, 0, 53, 0
2, 7488, Note_off_c, 0, 56, 0
2, 7532, Note_off_c, 0, 61, 0
2, 7692, Note_on_c, 0, 58, 71
2, 7692, Note_on_c, 0, 54, 71
2, 7692, Note_on_c, 0, 61, 68
2, 7692, Note_on_c, 0, 65, 89
2, 8072, Note_off_c, 0, 61, 0
2, 8108, Note_off_c, 0, 54, 0
2, 8112, Note_off_c, 0, 65, 0
2, 8172, Note_off_c, 0, 58, 0
2, 8256, Note_on_c, 0, 56, 71
2, 8256, Note_on_c, 0, 63, 75
2, 8260, Note_on_c, 0, 58, 68
2, 8260, Note_on_c, 0, 60, 68
2, 9084, Note_off_c, 0, 63, 0
2, 9092, Note_off_c, 0, 56, 0
2, 9116, Note_off_c, 0, 60, 0
2, 9116, Note_off_c, 0, 58, 0
2, 9208, Note_on_c, 0, 63, 71
2, 9212, Note_on_c, 0, 56, 71
2, 9216, Note_on_c, 0, 60, 71
2, 9652, Note_off_c, 0, 56, 0
2, 9680, Note_off_c, 0, 60, 0
2, 9712, Note_off_c, 0, 63, 0
2, 9800, Note_on_c, 0, 56, 75
2, 9800, Note_on_c, 0, 61, 71
2, 9808, Note_on_c, 0, 53, 68
2, 10532, Note_off_c, 0, 56, 0
2, 10548, Note_off_c, 0, 53, 0
2, 10596, Note_off_c, 0, 61, 0
2, 10740, Note_on_c, 0, 65, 84
2, 10748, Note_on_c, 0, 61, 68
2, 10748, Note_on_c, 0, 58, 71
2, 10752, Note_on_c, 0, 54, 62
2, 11188, Note_off_c, 0, 61, 0
2, 11200, Note_off_c, 0, 54, 0
2, 11220, Note_off_c, 0, 65, 0
2, 11268, Note_off_c, 0, 58, 0
2, 11336, Note_on_c, 0, 63, 71
2, 11340, Note_on_c, 0, 56, 71
2, 11340, Note_on_c, 0, 58, 48
2, 11348, Note_on_c, 0, 60, 60
2, 12144, Note_off_c, 0, 63, 0
2, 12152, Note_off_c, 0, 60, 0
2, 12152, Note_off_c, 0, 56, 0
2, 12184, Note_off_c, 0, 58, 0
2, 12288, Note_on_c, 0, 56, 71
2, 12288, Note_on_c, 0, 63, 71
2, 12296, Note_on_c, 0, 60, 71
2, 12748, Note_off_c, 0, 56, 0
2, 12760, Note_off_c, 0, 60, 0
2, 12792, Note_off_c, 0, 63, 0
2, 12868, Note_on_c, 0, 61, 75
2, 12872, Note_on_c, 0, 53, 68
2, 12876, Note_on_c, 0, 56, 71
2, 13628, Note_off_c, 0, 53, 0
2, 13632, Note_off_c, 0, 56, 0
2, 13688, Note_off_c, 0, 61, 0
2, 13824, Note_on_c, 0, 65, 84
2, 13828, Note_on_c, 0, 61, 62
2, 13832, Note_on_c, 0, 54, 60
2, 13832, Note_on_c, 0, 58, 68
2, 14264, Note_off_c, 0, 61, 0
2, 14284, Note_off_c, 0, 54, 0
2, 14284, Note_off_c, 0, 65, 0
2, 14312, Note_off_c, 0, 58, 0
2, 14412, Note_on_c, 0, 63, 75
2, 14416, Note_on_c, 0, 56, 62
2, 14420, Note_on_c, 0, 60, 62
2, 14424, Note_on_c, 0, 58, 60
2, 14996, Note_off_c, 0, 58, 0
2, 14996, Note_off_c, 0, 60, 0
2, 15008, Note_off_c, 0, 56, 0
2, 15040, Note_off_c, 0, 63, 0
2, 15168, Note_on_c, 0, 60, 75
2, 15168, Note_on_c, 0, 56, 68
2, 15168, Note_on_c, 0, 63, 75
2, 15464, Note_off_c, 0, 56, 0
2, 15512, Note_off_c, 0, 60, 0
2, 15516, Note_off_c, 0, 63, 0
2, 15548, Note_on_c, 0, 65, 89
2, 15548, Note_on_c, 0, 61, 71
2, 15552, Note_on_c, 0, 56, 84
2, 15636, Note_off_c, 0, 56, 0
2, 15660, Note_off_c, 0, 61, 0
2, 15660, Note_off_c, 0, 65, 0
2, 15744, Note_on_c, 0, 56, 71
2, 15744, Note_on_c, 0, 65, 75
2, 15744, Note_on_c, 0, 61, 62
2, 16736, Note_off_c, 0, 56, 0
2, 16748, Note_off_c, 0, 65, 0
2, 16760, Note_off_c, 0, 61, 0
2, 16892, Note_on_c, 0, 54, 68
2, 16892, Note_on_c, 0, 58, 68
2, 16892, Note_on_c, 0, 65, 94
2, 16892, Note_on_c, 0, 61, 62
2, 18276, Note_off_c, 0, 61, 0
2, 18280, Note_off_c, 0, 65, 0
2, 18292, Note_off_c, 0, 54, 0
2, 18344, Note_off_c, 0, 58, 0
2, 18412, Note_on_c, 0, 58, 51
2, 18412, Note_on_c, 0, 63, 71
2, 18416, Note_on_c, 0, 56, 62
2, 18428, Note_on_c, 0, 60, 60
2, 19792, Note_off_c, 0, 60, 0
2, 19808, Note_off_c, 0, 63, 0
2, 19812, Note_off_c, 0, 56, 0
2, 19820, Note_off_c, 0, 58, 0
2, 19960, Note_on_c, 0, 65, 89
2, 19960, Note_on_c, 0, 54, 60
2, 19964, Note_on_c, 0, 58, 71
2, 19964, Note_on_c, 0, 61, 71
2, 21436, Note_off_c, 0, 58, 0
2, 21436, Note_off_c, 0, 65, 0
2, 21440, Note_off_c, 0, 54, 0
2, 21440, Note_off_c, 0, 61, 0
2, 23040, Note_on_c, 0, 65, 89
2, 23044, Note_on_c, 0, 58, 71
2, 23048, Note_on_c, 0, 54, 71
2, 23048, Note_on_c, 0, 61, 68
2, 24408, Note_off_c, 0, 61, 0
2, 24428, Note_off_c, 0, 65, 0
2, 24432, Note_off_c, 0, 54, 0
2, 24528, Note_off_c, 0, 58, 0
2, 24584, Note_on_c, 0, 58, 42
2, 24588, Note_on_c, 0, 56, 68
2, 24588, Note_on_c, 0, 60, 68
2, 24592, Note_on_c, 0, 63, 71
2, 25940, Note_off_c, 0, 56, 0
2, 25940, Note_off_c, 0, 60, 0
2, 25948, Note_off_c, 0, 58, 0
2, 25968, Note_off_c, 0, 63, 0
2, 26112, Note_on_c, 0, 65, 78
2, 26112, Note_on_c, 0, 54, 58
2, 26116, Note_on_c, 0, 58, 71
2, 26116, Note_on_c, 0, 61, 62
2, 27636, Note_off_c, 0, 58, 0
2, 27640, Note_off_c, 0, 61, 0
2, 27640, Note_off_c, 0, 54, 0
2, 27640, Note_off_c, 0, 65, 0
2, 35328, Note_on_c, 0, 54, 60
2, 35328, Note_on_c, 0, 58, 62
2, 35328, Note_on_c, 0, 61, 62
2, 35328, Note_on_c, 0, 65, 78
2, 35788, Note_off_c, 0, 54, 0
2, 35804, Note_off_c, 0, 65, 0
2, 35808, Note_off_c, 0, 61, 0
2, 35864, Note_off_c, 0, 58, 0
2, 35916, Note_on_c, 0, 58, 48
2, 35920, Note_on_c, 0, 56, 60
2, 35924, Note_on_c, 0, 60, 51
2, 35924, Note_on_c, 0, 63, 75
2, 36732, Note_off_c, 0, 60, 0
2, 36748, Note_off_c, 0, 56, 0
2, 36768, Note_off_c, 0, 63, 0
2, 36772, Note_off_c, 0, 58, 0
2, 36876, Note_on_c, 0, 63, 68
2, 36884, Note_on_c, 0, 60, 65
2, 36884, Note_on_c, 0, 56, 62
2, 37332, Note_off_c, 0, 56, 0
2, 37356, Note_off_c, 0, 60, 0
2, 37368, Note_off_c, 0, 63, 0
2, 37440, Note_on_c, 0, 61, 71
2, 37444, Note_on_c, 0, 56, 68
2, 37448, Note_on_c, 0, 53, 62
2, 38172, Note_off_c, 0, 53, 0
2, 38196, Note_off_c, 0, 56, 0
2, 38228, Note_off_c, 0, 61, 0
2, 38412, Note_on_c, 0, 65, 84
2, 38416, Note_on_c, 0, 54, 68
2, 38416, Note_on_c, 0, 61, 62
2, 38416, Note_on_c, 0, 58, 68
2, 38828, Note_off_c, 0, 61, 0
2, 38852, Note_off_c, 0, 65, 0
2, 38860, Note_off_c, 0, 54, 0
2, 38904, Note_off_c, 0, 58, 0
2, 38984, Note_on_c, 0, 63, 75
2, 38988, Note_on_c, 0, 60, 65
2, 38988, Note_on_c, 0, 56, 68
2, 39000, Note_on_c, 0, 58, 62
2, 39740, Note_off_c, 0, 60, 0
2, 39748, Note_off_c, 0, 56, 0
2, 39768, Note_off_c, 0, 58, 0
2, 39828, Note_off_c, 0, 63, 0
2, 39928, Note_on_c, 0, 63, 71
2, 39932, Note_on_c, 0, 56, 68
2, 39936, Note_on_c, 0, 60, 68
2, 40216, Note_off_c, 0, 56, 0
2, 40288, Note_off_c, 0, 63, 0
2, 40300, Note_off_c, 0, 60, 0
2, 40344, Note_on_c, 0, 65, 75
2, 40344, Note_on_c, 0, 61, 62
2, 40344, Note_on_c, 0, 56, 68
2, 41248, Note_off_c, 0, 56, 0
2, 41264, Note_off_c, 0, 65, 0
2, 41268, Note_off_c, 0, 61, 0
2, 41452, Note_on_c, 0, 65, 84
2, 41452, Note_on_c, 0, 54, 62
2, 41456, Note_on_c, 0, 61, 71
2, 41456, Note_on_c, 0, 58, 71
2, 41872, Note_off_c, 0, 61, 0
2, 41908, Note_off_c, 0, 54, 0
2, 41908, Note_off_c, 0, 65, 0
2, 41984, Note_off_c, 0, 58, 0
2, 42048, Note_on_c, 0, 58, 47
2, 42052, Note_on_c, 0, 63, 71
2, 42056, Note_on_c, 0, 56, 62
2, 42060, Note_on_c, 0, 60, 60
2, 42800, Note_off_c, 0, 60, 0
2, 42852, Note_off_c, 0, 56, 0
2, 42856, Note_off_c, 0, 63, 0
2, 42892, Note_off_c, 0, 58, 0
2, 43004, Note_on_c, 0, 63, 62
2, 43012, Note_on_c, 0, 60, 62
2, 43012, Note_on_c, 0, 56, 60
2, 43472, Note_off_c, 0, 56, 0
2, 43484, Note_off_c, 0, 60, 0
2, 43492, Note_off_c, 0, 63, 0
2, 43588, Note_on_c, 0, 61, 75
2, 43592, Note_on_c, 0, 53, 60
2, 43592, Note_on_c, 0, 56, 71
2, 44304, Note_off_c, 0, 53, 0
2, 44308, Note_off_c, 0, 56, 0
2, 44360, Note_off_c, 0, 61, 0
2, 44552, Note_on_c, 0, 65, 78
2, 44556, Note_on_c, 0, 58, 68
2, 44556, Note_on_c, 0, 54, 60
2, 44560, Note_on_c, 0, 61, 62
2, 44992, Note_off_c, 0, 54, 0
2, 45000, Note_off_c, 0, 61, 0
2, 45008, Note_off_c, 0, 65, 0
2, 45060, Note_off_c, 0, 58, 0
2, 45128, Note_on_c, 0, 63, 68
2, 45132, Note_on_c, 0, 58, 60
2, 45136, Note_on_c, 0, 60, 54
2, 45144, Note_on_c, 0, 56, 58
2, 45860, Note_off_c, 0, 56, 0
2, 45876, Note_off_c, 0, 60, 0
2, 45908, Note_off_c, 0, 58, 0
2, 45920, Note_off_c, 0, 63, 0
2, 46068, Note_on_c, 0, 63, 68
2, 46068, Note_on_c, 0, 56, 62
2, 46072, Note_on_c, 0, 60, 71
2, 46332, Note_off_c, 0, 56, 0
2, 46400, Note_off_c, 0, 63, 0
2, 46400, Note_off_c, 0, 60, 0
2, 46460, Note_on_c, 0, 56, 68
2, 46464, Note_on_c, 0, 65, 75
2, 46468, Note_on_c, 0, 61, 68
2, 47516, Note_off_c, 0, 61, 0
2, 47516, Note_off_c, 0, 56, 0
2, 47528, Note_off_c, 0, 65, 0
2, 47616, Note_on_c, 0, 54, 62
2, 47616, Note_on_c, 0, 61, 62
2, 47616, Note_on_c, 0, 58, 62
2, 47616, Note_on_c, 0, 65, 89
2, 48960, Note_off_c, 0, 61, 0
2, 48980, Note_off_c, 0, 65, 0
2, 48988, Note_off_c, 0, 54, 0
2, 49008, Note_off_c, 0, 58, 0
2, 49132, Note_on_c, 0, 63, 68
2, 49144, Note_on_c, 0, 58, 51
2, 49148, Note_on_c, 0, 60, 60
2, 49148, Note_on_c, 0, 56, 58
2, 50508, Note_off_c, 0, 56, 0
2, 50512, Note_off_c, 0, 60, 0
2, 50516, Note_off_c, 0, 63, 0
2, 50520, Note_off_c, 0, 58, 0
2, 50684, Note_on_c, 0, 65, 89
2, 50688, Note_on_c, 0, 58, 60
2, 50688, Note_on_c, 0, 54, 54
2, 50688, Note_on_c, 0, 61, 62
2, 52128, Note_off_c, 0, 58, 0
2, 52128, Note_off_c, 0, 65, 0
2, 52136, Note_off_c, 0, 61, 0
2, 52136, Note_off_c, 0, 54, 0
2, 53772, Note_on_c, 0, 65, 78
2, 53776, Note_on_c, 0, 58, 62
2, 53776, Note_on_c, 0, 54, 54
2, 53780, Note_on_c, 0, 61, 60
2, 55104, Note_off_c, 0, 65, 0
2, 55104, Note_off_c, 0, 54, 0
2, 55108, Note_off_c, 0, 61, 0
2, 55128, Note_off_c, 0, 58, 0
2, 55288, Note_on_c, 0, 63, 71
2, 55296, Note_on_c, 0, 56, 54
2, 55304, Note_on_c, 0, 58, 60
2, 55304, Note_on_c, 0, 60, 62
2, 56648, Note_off_c, 0, 60, 0
2, 56660, Note_off_c, 0, 56, 0
2, 56664, Note_off_c, 0, 63, 0
2, 56672, Note_off_c, 0, 58, 0
2, 56832, Note_on_c, 0, 54, 62
2, 56832, Note_on_c, 0, 58, 71
2, 56832, Note_on_c, 0, 65, 84
2, 56840, Note_on_c, 0, 61, 62
2, 58184, Note_off_c, 0, 58, 0
2, 58184, Note_off_c, 0, 54, 0
2, 58196, Note_off_c, 0, 65, 0
2, 58196, Note_off_c, 0, 61, 0
2, 66048, Note_on_c, 0, 54, 58
2, 66048, Note_on_c, 0, 58, 62
2, 66048, Note_on_c, 0, 61, 62
2, 66048, Note_on_c, 0, 65, 78
2, 66476, Note_off_c, 0, 61, 0
2, 66492, Note_off_c, 0, 65, 0
2, 66492, Note_off_c, 0, 54, 0
2, 66516, Note_off_c, 0, 58, 0
2, 66616, Note_on_c, 0, 63, 68
2, 66624, Note_on_c, 0, 56, 58
2, 66624, Note_on_c, 0, 58, 53
2, 66640, Note_on_c, 0, 60, 53
2, 67448, Note_off_c, 0, 60, 0
2, 67448, Note_off_c, 0, 56, 0
2, 67460, Note_off_c, 0, 63, 0
2, 67480, Note_off_c, 0, 58, 0
2, 67588, Note_on_c, 0, 63, 71
2, 67596, Note_on_c, 0, 56, 60
2, 67604, Note_on_c, 0, 60, 68
2, 68012, Note_off_c, 0, 56, 0
2, 68036, Note_off_c, 0, 63, 0
2, 68040, Note_off_c, 0, 60, 0
2, 68144, Note_on_c, 0, 61, 71
2, 68152, Note_on_c, 0, 53, 60
2, 68152, Note_on_c, 0, 56, 62
2, 68920, Note_off_c, 0, 56, 0
2, 68944, Note_off_c, 0, 53, 0
2, 68988, Note_off_c, 0, 61, 0
2, 69144, Note_on_c, 0, 65, 84
2, 69148, Note_on_c, 0, 54, 62
2, 69148, Note_on_c, 0, 58, 68
2, 69152, Note_on_c, 0, 61, 68
2, 69556, Note_off_c, 0, 54, 0
2, 69560, Note_off_c, 0, 65, 0
2, 69564, Note_off_c, 0, 61, 0
2, 69616, Note_off_c, 0, 58, 0
2, 69684, Note_on_c, 0, 58, 53
2, 69688, Note_on_c, 0, 56, 68
2, 69688, Note_on_c, 0, 63, 71
2, 69696, Note_on_c, 0, 60, 62
2, 70408, Note_off_c, 0, 60, 0
2, 70416, Note_off_c, 0, 58, 0
2, 70480, Note_off_c, 0, 56, 0
2, 70508, Note_off_c, 0, 63, 0
2, 70644, Note_on_c, 0, 56, 68
2, 70644, Note_on_c, 0, 63, 62
2, 70652, Note_on_c, 0, 60, 68
2, 70936, Note_off_c, 0, 56, 0
2, 70996, Note_off_c, 0, 60, 0
2, 71004, Note_off_c, 0, 63, 0
2, 71044, Note_on_c, 0, 56, 71
2, 71048, Note_on_c, 0, 65, 84
2, 71048, Note_on_c, 0, 61, 68
2, 71956, Note_off_c, 0, 56, 0
2, 71964, Note_off_c, 0, 65, 0
2, 71980, Note_off_c, 0, 61, 0
2, 72168, Note_on_c, 0, 65, 84
2, 72172, Note_on_c, 0, 58, 71
2, 72176, Note_on_c, 0, 61, 68
2, 72176, Note_on_c, 0, 54, 62
2, 72576, Note_off_c, 0, 61, 0
2, 72604, Note_off_c, 0, 65, 0
2, 72608, Note_off_c, 0, 54, 0
2, 72684, Note_off_c, 0, 58, 0
2, 72760, Note_on_c, 0, 58, 48
2, 72760, Note_on_c, 0, 63, 71
2, 72764, Note_on_c, 0, 60, 65
2, 72764, Note_on_c, 0, 56, 62
2, 73568, Note_off_c, 0, 60, 0
2, 73572, Note_off_c, 0, 63, 0
2, 73580, Note_off_c, 0, 56, 0
2, 73596, Note_off_c, 0, 58, 0
2, 73712, Note_on_c, 0, 63, 62
2, 73720, Note_on_c, 0, 56, 60
2, 73720, Note_on_c, 0, 60, 65
2, 74196, Note_off_c, 0, 56, 0
2, 74204, Note_off_c, 0, 60, 0
2, 74228, Note_off_c, 0, 63, 0
2, 74304, Note_on_c, 0, 56, 68
2, 74304, Note_on_c, 0, 61, 75
2, 74312, Note_on_c, 0, 53, 65
2, 75040, Note_off_c, 0, 56, 0
2, 75060, Note_off_c, 0, 53, 0
2, 75112, Note_off_c, 0, 61, 0
2, 75272, Note_on_c, 0, 61, 62
2, 75272, Note_on_c, 0, 54, 62
2, 75272, Note_on_c, 0, 58, 62
2, 75272, Note_on_c, 0, 65, 78
2, 75716, Note_off_c, 0, 54, 0
2, 75720, Note_off_c, 0, 65, 0
2, 75744, Note_off_c, 0, 61, 0
2, 75764, Note_off_c, 0, 58, 0
2, 75852, Note_on_c, 0, 60, 68
2, 75852, Note_on_c, 0, 56, 68
2, 75852, Note_on_c, 0, 63, 71
2, 75864, Note_on_c, 0, 58, 58
2, 76604, Note_off_c, 0, 60, 0
2, 76608, Note_off_c, 0, 58, 0
2, 76624, Note_off_c, 0, 56, 0
2, 76668, Note_off_c, 0, 63, 0
2, 76796, Note_on_c, 0, 63, 68
2, 76800, Note_on_c, 0, 60, 71
2, 76800, Note_on_c, 0, 56, 71
2, 77080, Note_off_c, 0, 56, 0
2, 77136, Note_off_c, 0, 60, 0
2, 77140, Note_off_c, 0, 63, 0
2, 77192, Note_on_c, 0, 56, 68
2, 77196, Note_on_c, 0, 65, 84
2, 77200, Note_on_c, 0, 61, 71
2, 78124, Note_off_c, 0, 61, 0
2, 78136, Note_off_c, 0, 56, 0
2, 78136, Note_off_c, 0, 65, 0
2, 78356, Note_on_c, 0, 54, 62
2, 78356, Note_on_c, 0, 61, 62
2, 78356, Note_on_c, 0, 58, 75
2, 78356, Note_on_c, 0, 65, 84
2, 78776, Note_off_c, 0, 61, 0
2, 78808, Note_off_c, 0, 54, 0
2, 78812, Note_off_c, 0, 65, 0
2, 78864, Note_off_c, 0, 58, 0
2, 78932, Note_on_c, 0, 63, 68
2, 78936, Note_on_c, 0, 60, 62
2, 78936, Note_on_c, 0, 58, 47
2, 78940, Note_on_c, 0, 56, 60
2, 79696, Note_off_c, 0, 63, 0
2, 79728, Note_off_c, 0, 56, 0
2, 79732, Note_off_c, 0, 60, 0
2, 79764, Note_off_c, 0, 58, 0
2, 79844, Note_on_c, 0, 63, 71
2, 79852, Note_on_c, 0, 56, 68
2, 79852, Note_on_c, 0, 60, 65
2, 80324, Note_off_c, 0, 56, 0
2, 80336, Note_off_c, 0, 60, 0
2, 80356, Note_off_c, 0, 63, 0
2, 80440, Note_on_c, 0, 61, 71
2, 80444, Note_on_c, 0, 56, 68
2, 80444, Note_on_c, 0, 53, 65
2, 81200, Note_off_c, 0, 56, 0
2, 81224, Note_off_c, 0, 53, 0
2, 81264, Note_off_c, 0, 61, 0
2, 81408, Note_on_c, 0, 65, 84
2, 81416, Note_on_c, 0, 61, 62
2, 81416, Note_on_c, 0, 54, 62
2, 81420, Note_on_c, 0, 58, 71
2, 81860, Note_off_c, 0, 65, 0
2, 81868, Note_off_c, 0, 54, 0
2, 81876, Note_off_c, 0, 61, 0
2, 81916, Note_off_c, 0, 58, 0
2, 81984, Note_on_c, 0, 56, 68
2, 81984, Note_on_c, 0, 60, 65
2, 81984, Note_on_c, 0, 63, 71
2, 81984, Note_on_c, 0, 58, 48
2, 82732, Note_off_c, 0, 60, 0
2, 82760, Note_off_c, 0, 58, 0
2, 82764, Note_off_c, 0, 56, 0
2, 82816, Note_off_c, 0, 63, 0
2, 82944, Note_on_c, 0, 56, 62
2, 82944, Note_on_c, 0, 63, 68
2, 82952, Note_on_c, 0, 60, 65
2, 83240, Note_off_c, 0, 56, 0
2, 83280, Note_off_c, 0, 60, 0
2, 83288, Note_off_c, 0, 63, 0
2, 83340, Note_on_c, 0, 56, 68
2, 83344, Note_on_c, 0, 65, 75
2, 83344, Note_on_c, 0, 61, 62
2, 84224, Note_off_c, 0, 56, 0
2, 84228, Note_off_c, 0, 61, 0
2, 84232, Note_off_c, 0, 65, 0
2, 84452, Note_on_c, 0, 61, 68
2, 84452, Note_on_c, 0, 54, 62
2, 84452, Note_on_c, 0, 58, 75
2, 84452, Note_on_c, 0, 65, 75
2, 84900, Note_off_c, 0, 61, 0
2, 84912, Note_off_c, 0, 65, 0
2, 84912, Note_off_c, 0, 54, 0
2, 84988, Note_off_c, 0, 58, 0
2, 85048, Note_on_c, 0, 56, 62
2, 85048, Note_on_c, 0, 58, 54
2, 85048, Note_on_c, 0, 63, 71
2, 85060, Note_on_c, 0, 60, 58
2, 85816, Note_off_c, 0, 60, 0
2, 85832, Note_off_c, 0, 56, 0
2, 85844, Note_off_c, 0, 63, 0
2, 85868, Note_off_c, 0, 58, 0
2, 86008, Note_on_c, 0, 63, 68
2, 86012, Note_on_c, 0, 56, 71
2, 86016, Note_on_c, 0, 60, 71
2, 86472, Note_off_c, 0, 56, 0
2, 86488, Note_off_c, 0, 60, 0
2, 86508, Note_off_c, 0, 63, 0
2, 86592, Note_on_c, 0, 61, 68
2, 86596, Note_on_c, 0, 56, 71
2, 86600, Note_on_c, 0, 53, 65
2, 87320, Note_off_c, 0, 56, 0
2, 87340, Note_off_c, 0, 53, 0
2, 87384, Note_off_c, 0, 61, 0
2, 87560, Note_on_c, 0, 61, 60
2, 87560, Note_on_c, 0, 58, 71
2, 87560, Note_on_c, 0, 54, 68
2, 87560, Note_on_c, 0, 65, 84
2, 87976, Note_off_c, 0, 65, 0
2, 87988, Note_off_c, 0, 54, 0
2, 88004, Note_off_c, 0, 61, 0
2, 88056, Note_off_c, 0, 58, 0
2, 88116, Note_on_c, 0, 58, 51
2, 88120, Note_on_c, 0, 63, 71
2, 88124, Note_on_c, 0, 56, 68
2, 88132, Note_on_c, 0, 60, 60
2, 88896, Note_off_c, 0, 60, 0
2, 88912, Note_off_c, 0, 58, 0
2, 88956, Note_off_c, 0, 63, 0
2, 88960, Note_off_c, 0, 56, 0
2, 89088, Note_on_c, 0, 56, 71
2, 89088, Note_on_c, 0, 63, 68
2, 89096, Note_on_c, 0, 60, 71
2, 89352, Note_off_c, 0, 56, 0
2, 89400, Note_off_c, 0, 63, 0
2, 89408, Note_off_c, 0, 60, 0
2, 89484, Note_on_c, 0, 56, 68
2, 89488, Note_on_c, 0, 61, 71
2, 89488, Note_on_c, 0, 65, 84
2, 90288, Note_off_c, 0, 61, 0
2, 90304, Note_off_c, 0, 56, 0
2, 90304, Note_off_c, 0, 65, 0
2, 121344, Note_on_c, 0, 54, 62
2, 121344, Note_on_c, 0, 65, 78
2, 121344, Note_on_c, 0, 61, 68
2, 121344, Note_on_c, 0, 58, 62
2, 121800, Note_off_c, 0, 65, 0
2, 121808, Note_off_c, 0, 54, 0
2, 121824, Note_off_c, 0, 61, 0
2, 121848, Note_off_c, 0, 58, 0
2, 121924, Note_on_c, 0, 63, 75
2, 121924, Note_on_c, 0, 58, 54
2, 121932, Note_on_c, 0, 56, 71
2, 121936, Note_on_c, 0, 60, 62
2, 122744, Note_off_c, 0, 60, 0
2, 122744, Note_off_c, 0, 56, 0
2, 122752, Note_off_c, 0, 58, 0
2, 122752, Note_off_c, 0, 63, 0
2, 122880, Note_on_c, 0, 63, 71
2, 122892, Note_on_c, 0, 60, 68
2, 122892, Note_on_c, 0, 56, 68
2, 123324, Note_off_c, 0, 56, 0
2, 123344, Note_off_c, 0, 60, 0
2, 123356, Note_off_c, 0, 63, 0
2, 123440, Note_on_c, 0, 61, 71
2, 123444, Note_on_c, 0, 56, 68
2, 123448, Note_on_c, 0, 53, 65
2, 124240, Note_off_c, 0, 56, 0
2, 124248, Note_off_c, 0, 53, 0
2, 124288, Note_off_c, 0, 61, 0
2, 124452, Note_on_c, 0, 65, 84
2, 124452, Note_on_c, 0, 58, 68
2, 124456, Note_on_c, 0, 54, 62
2, 124460, Note_on_c, 0, 61, 62
2, 124848, Note_off_c, 0, 61, 0
2, 124884, Note_off_c, 0, 65, 0
2, 124892, Note_off_c, 0, 54, 0
2, 124952, Note_off_c, 0, 58, 0
2, 125000, Note_on_c, 0, 63, 71
2, 125004, Note_on_c, 0, 56, 60
2, 125004, Note_on_c, 0, 60, 65
2, 125016, Note_on_c, 0, 58, 60
2, 125716, Note_off_c, 0, 60, 0
2, 125756, Note_off_c, 0, 58, 0
2, 125756, Note_off_c, 0, 56, 0
2, 125820, Note_off_c, 0, 63, 0
2, 125952, Note_on_c, 0, 56, 68
2, 125952, Note_on_c, 0, 60, 68
2, 125952, Note_on_c, 0, 63, 71
2, 126232, Note_off_c, 0, 56, 0
2, 126292, Note_off_c, 0, 60, 0
2, 126308, Note_off_c, 0, 63, 0
2, 126356, Note_on_c, 0, 65, 78
2, 126356, Note_on_c, 0, 61, 68
2, 126356, Note_on_c, 0, 56, 71
2, 127232, Note_off_c, 0, 61, 0
2, 127236, Note_off_c, 0, 56, 0
2, 127256, Note_off_c, 0, 65, 0
2, 127468, Note_on_c, 0, 65, 78
2, 127472, Note_on_c, 0, 54, 62
2, 127472, Note_on_c, 0, 61, 68
2, 127476, Note_on_c, 0, 58, 71
2, 127900, Note_off_c, 0, 61, 0
2, 127924, Note_off_c, 0, 65, 0
2, 127924, Note_off_c, 0, 54, 0
2, 127984, Note_off_c, 0, 58, 0
2, 128052, Note_on_c, 0, 63, 75
2, 128052, Note_on_c, 0, 58, 60
2, 128060, Note_on_c, 0, 60, 68
2, 128060, Note_on_c, 0, 56, 68
2, 128836, Note_off_c, 0, 60, 0
2, 128856, Note_off_c, 0, 56, 0
2, 128856, Note_off_c, 0, 63, 0
2, 128880, Note_off_c, 0, 58, 0
2, 129012, Note_on_c, 0, 56, 75
2, 129012, Note_on_c, 0, 63, 68
2, 129016, Note_on_c, 0, 60, 75
2, 129476, Note_off_c, 0, 56, 0
2, 129492, Note_off_c, 0, 60, 0
2, 129516, Note_off_c, 0, 63, 0
2, 129584, Note_on_c, 0, 61, 75
2, 129592, Note_on_c, 0, 53, 62
2, 129596, Note_on_c, 0, 56, 62
2, 130348, Note_off_c, 0, 56, 0
2, 130356, Note_off_c, 0, 53, 0
2, 130404, Note_off_c, 0, 61, 0
2, 130568, Note_on_c, 0, 65, 78
2, 130568, Note_on_c, 0, 61, 68
2, 130568, Note_on_c, 0, 54, 62
2, 130568, Note_on_c, 0, 58, 68
2, 131012, Note_off_c, 0, 61, 0
2, 131020, Note_off_c, 0, 54, 0
2, 131024, Note_off_c, 0, 65, 0
2, 131036, Note_off_c, 0, 58, 0
2, 131140, Note_on_c, 0, 63, 71
2, 131148, Note_on_c, 0, 60, 62
2, 131148, Note_on_c, 0, 56, 71
2, 131152, Note_on_c, 0, 58, 58
2, 131876, Note_off_c, 0, 60, 0
2, 131904, Note_off_c, 0, 56, 0
2, 131908, Note_off_c, 0, 58, 0
2, 131964, Note_off_c, 0, 63, 0
2, 132084, Note_on_c, 0, 63, 68
2, 132092, Note_on_c, 0, 60, 65
2, 132092, Note_on_c, 0, 56, 62
2, 132384, Note_off_c, 0, 56, 0
2, 132432, Note_off_c, 0, 60, 0
2, 132440, Note_off_c, 0, 63, 0
2, 132496, Note_on_c, 0, 56, 68
2, 132500, Note_on_c, 0, 61, 68
2, 132500, Note_on_c, 0, 65, 84
2, 133412, Note_off_c, 0, 56, 0
2, 133420, Note_off_c, 0, 65, 0
2, 133424, Note_off_c, 0, 61, 0
2, 133648, Note_on_c, 0, 58, 75
2, 133648, Note_on_c, 0, 61, 68
2, 133648, Note_on_c, 0, 54, 62
2, 133648, Note_on_c, 0, 65, 84
2, 134060, Note_off_c, 0, 61, 0
2, 134072, Note_off_c, 0, 54, 0
2, 134080, Note_off_c, 0, 65, 0
2, 134148, Note_off_c, 0, 58, 0
2, 134208, Note_on_c, 0, 63, 68
2, 134212, Note_on_c, 0, 58, 58
2, 134212, Note_on_c, 0, 60, 60
2, 134212, Note_on_c, 0, 56, 60
2, 134996, Note_off_c, 0, 56, 0
2, 135020, Note_off_c, 0, 60, 0
2, 135020, Note_off_c, 0, 63, 0
2, 135032, Note_off_c, 0, 58, 0
2, 135148, Note_on_c, 0, 63, 71
2, 135156, Note_on_c, 0, 60, 71
2, 135156, Note_on_c, 0, 56, 62
2, 135652, Note_off_c, 0, 56, 0
2, 135672, Note_off_c, 0, 60, 0
2, 135696, Note_off_c, 0, 63, 0
2, 135756, Note_on_c, 0, 61, 71
2, 135756, Note_on_c, 0, 56, 68
2, 135760, Note_on_c, 0, 53, 75
2, 136524, Note_off_c, 0, 56, 0
2, 136528, Note_off_c, 0, 53, 0
2, 136564, Note_off_c, 0, 61, 0
2, 136700, Note_on_c, 0, 65, 84
2, 136704, Note_on_c, 0, 54, 68
2, 136704, Note_on_c, 0, 61, 68
2, 136704, Note_on_c, 0, 58, 75
2, 137112, Note_off_c, 0, 61, 0
2, 137144, Note_off_c, 0, 54, 0
2, 137156, Note_off_c, 0, 65, 0
2, 137208, Note_off_c, 0, 58, 0
2, 137284, Note_on_c, 0, 60, 68
2, 137288, Note_on_c, 0, 58, 48
2, 137288, Note_on_c, 0, 63, 68
2, 137296, Note_on_c, 0, 56, 54
2, 138040, Note_off_c, 0, 60, 0
2, 138068, Note_off_c, 0, 58, 0
2, 138084, Note_off_c, 0, 56, 0
2, 138136, Note_off_c, 0, 63, 0
2, 138244, Note_on_c, 0, 63, 71
2, 138248, Note_on_c, 0, 56, 71
2, 138256, Note_on_c, 0, 60, 75
2, 138536, Note_off_c, 0, 56, 0
2, 138596, Note_off_c, 0, 63, 0
2, 138600, Note_off_c, 0, 60, 0
2, 138644, Note_on_c, 0, 65, 84
2, 138648, Note_on_c, 0, 56, 62
2, 138652, Note_on_c, 0, 61, 62
2, 139576, Note_off_c, 0, 65, 0
2, 139576, Note_off_c, 0, 56, 0
2, 139580, Note_off_c, 0, 61, 0
2, 139752, Note_on_c, 0, 65, 78
2, 139756, Note_on_c, 0, 58, 75
2, 139756, Note_on_c, 0, 61, 62
2, 139760, Note_on_c, 0, 54, 62
2, 140220, Note_off_c, 0, 54, 0
2, 140224, Note_off_c, 0, 65, 0
2, 140224, Note_off_c, 0, 61, 0
2, 140284, Note_off_c, 0, 58, 0
2, 140348, Note_on_c, 0, 58, 60
2, 140352, Note_on_c, 0, 56, 68
2, 140352, Note_on_c, 0, 63, 68
2, 140364, Note_on_c, 0, 60, 56
2, 141156, Note_off_c, 0, 63, 0
2, 141164, Note_off_c, 0, 56, 0
2, 141172, Note_off_c, 0, 58, 0
2, 141180, Note_off_c, 0, 60, 0
2, 141296, Note_on_c, 0, 63, 62
2, 141300, Note_on_c, 0, 56, 68
2, 141304, Note_on_c, 0, 60, 65
2, 141764, Note_off_c, 0, 56, 0
2, 141788, Note_off_c, 0, 63, 0
2, 141812, Note_off_c, 0, 60, 0
2, 141888, Note_on_c, 0, 61, 71
2, 141892, Note_on_c, 0, 56, 75
2, 141892, Note_on_c, 0, 53, 68
2, 142648, Note_off_c, 0, 56, 0
2, 142664, Note_off_c, 0, 53, 0
2, 142684, Note_off_c, 0, 61, 0
2, 142840, Note_on_c, 0, 58, 71
2, 142844, Note_on_c, 0, 54, 68
2, 142844, Note_on_c, 0, 61, 71
2, 142844, Note_on_c, 0, 65, 78
2, 143268, Note_off_c, 0, 61, 0
2, 143296, Note_off_c, 0, 54, 0
2, 143304, Note_off_c, 0, 65, 0
2, 143356, Note_off_c, 0, 58, 0
2, 143416, Note_on_c, 0, 56, 62
2, 143416, Note_on_c, 0, 63, 71
2, 143416, Note_on_c, 0, 58, 51
2, 143424, Note_on_c, 0, 60, 62
2, 144144, Note_off_c, 0, 60, 0
2, 144152, Note_off_c, 0, 58, 0
2, 144168, Note_off_c, 0, 56, 0
2, 144228, Note_off_c, 0, 63, 0
2, 144380, Note_on_c, 0, 56, 68
2, 144384, Note_on_c, 0, 60, 71
2, 144384, Note_on_c, 0, 63, 62
2, 144660, Note_off_c, 0, 56, 0
2, 144720, Note_off_c, 0, 63, 0
2, 144720, Note_off_c, 0, 60, 0
2, 144776, Note_on_c, 0, 65, 89
2, 144784, Note_on_c, 0, 56, 68
2, 144788, Note_on_c, 0, 61, 62
2, 145692, Note_off_c, 0, 61, 0
2, 145692, Note_off_c, 0, 56, 0
2, 145704, Note_off_c, 0, 65, 0
2, 145912, Note_on_c, 0, 65, 89
2, 145916, Note_on_c, 0, 54, 62
2, 145920, Note_on_c, 0, 58, 68
2, 145920, Note_on_c, 0, 61, 62
2, 146356, Note_off_c, 0, 65, 0
2, 146356, Note_off_c, 0, 54, 0
2, 146360, Note_off_c, 0, 61, 0
2, 146432, Note_off_c, 0, 58, 0
2, 146512, Note_on_c, 0, 63, 71
2, 146516, Note_on_c, 0, 56, 67
2, 146520, Note_on_c, 0, 60, 61
2, 146528, Note_on_c, 0, 58, 50
2, 147324, Note_off_c, 0, 56, 0
2, 147340, Note_off_c, 0, 63, 0
2, 147340, Note_off_c, 0, 60, 0
2, 147356, Note_off_c, 0, 58, 0
2, 147456, Note_on_c, 0, 63, 59
2, 147468, Note_on_c, 0, 60, 56
2, 147468, Note_on_c, 0, 56, 51
2, 147896, Note_off_c, 0, 56, 0
2, 147936, Note_off_c, 0, 60, 0
2, 147956, Note_off_c, 0, 63, 0
2, 148016, Note_on_c, 0, 61, 57
2, 148024, Note_on_c, 0, 56, 54
2, 148024, Note_on_c, 0, 53, 52
2, 148776, Note_off_c, 0, 56, 0
2, 148788, Note_off_c, 0, 53, 0
2, 148832, Note_off_c, 0, 61, 0
2, 148984, Note_on_c, 0, 58, 44
2, 148988, Note_on_c, 0, 65, 51
2, 148988, Note_on_c, 0, 61, 44
2, 148988, Note_on_c, 0, 54, 39
2, 149436, Note_off_c, 0, 65, 0
2, 149448, Note_off_c, 0, 54, 0
2, 149468, Note_off_c, 0, 61, 0
2, 149476, Note_off_c, 0, 58, 0
2, 149564, Note_on_c, 0, 63, 41
2, 149568, Note_on_c, 0, 58, 26
2, 149568, Note_on_c, 0, 60, 37
2, 149568, Note_on_c, 0, 56, 35
2, 150340, Note_off_c, 0, 60, 0
2, 150344, Note_off_c, 0, 56, 0
2, 150360, Note_off_c, 0, 58, 0
2, 150408, Note_off_c, 0, 63, 0
2, 150524, Note_on_c, 0, 56, 33
2, 150524, Note_on_c, 0, 63, 28
2, 150532, Note_on_c, 0, 60, 33
2, 150844, Note_off_c, 0, 56, 0
2, 150880, Note_off_c, 0, 60, 0
2, 150888, Note_off_c, 0, 63, 0
2, 150940, Note_on_c, 0, 65, 37
2, 150948, Note_on_c, 0, 61, 28
2, 150948, Note_on_c, 0, 56, 28
2, 151868, Note_off_c, 0, 65, 0
2, 151872, Note_off_c, 0, 56, 0
2, 151880, Note_off_c, 0, 61, 0
2, 152064, Note_on_c, 0, 65, 21
2, 152076, Note_on_c, 0, 58, 18
2, 152080, Note_on_c, 0, 61, 16
2, 152080, Note_on_c, 0, 54, 15
2, 152528, Note_off_c, 0, 54, 0
2, 152536, Note_off_c, 0, 61, 0
2, 152536, Note_off_c, 0, 65, 0
2, 152592, Note_off_c, 0, 58, 0
2, 152656, Note_on_c, 0, 63, 17
2, 152660, Note_on_c, 0, 58, 14
2, 152660, Note_on_c, 0, 60, 13
2, 152660, Note_on_c, 0, 56, 8
2, 153464, Note_off_c, 0, 60, 0
2, 153476, Note_off_c, 0, 56, 0
2, 153488, Note_off_c, 0, 63, 0
2, 153504, Note_off_c, 0, 58, 0
2, 153616, Note_on_c, 0, 63, 6
2, 153620, Note_on_c, 0, 60, 8
2, 153620, Note_on_c, 0, 56, 6
2, 154052, Note_off_c, 0, 56, 0
2, 154100, Note_off_c, 0, 60, 0
2, 154108, Note_off_c, 0, 63, 0
2, 154176, Note_on_c, 0, 53, 2
2, 154176, Note_on_c, 0, 61, 3
2, 154184, Note_on_c, 0, 56, 2
2, 154928, Note_off_c, 0, 56, 0
2, 154940, Note_off_c, 0, 53, 0
2, 154984, Note_off_c, 0, 61, 0
2, 155152, Note_on_c, 0, 61, 1
2, 155152, Note_on_c, 0, 58, 1
2, 155152, Note_on_c, 0, 65, 1
2, 155160, Note_on_c, 0, 54, 1
2, 155580, Note_off_c, 0, 54, 0
2, 155588, Note_off_c, 0, 65, 0
2, 155612, Note_off_c, 0, 61, 0
2, 155640, Note_off_c, 0, 58, 0
2, 155708, Note_on_c, 0, 56, 1
2, 155708, Note_on_c, 0, 58, 1
2, 155712, Note_on_c, 0, 63, 1
2, 155720, Note_on_c, 0, 60, 1
2, 156448, Note_off_c, 0, 60, 0
2, 156488, Note_off_c, 0, 58, 0
2, 156504, Note_off_c, 0, 56, 0
2, 156528, Note_off_c, 0, 63, 0
2, 158207, Control_c, 0, 127, 0
2, 158207, End_track
3, 0, Start_track
3, 0, Control_c, 1, 0, 0
3, 0, Control_c, 1, 32, 0
3, 0, Program_c, 1, 118
3, 0, Title_t, "SYNTH DRUM"
3, 0, Control_c, 1, 7, 127
3, 2032, Control_c, 1, 10, 10
3, 2032, Control_c, 1, 11, 127
3, 2032, Control_c, 1, 7, 95
3, 2036, Control_c, 1, 93, 40
3, 2036, Control_c, 1, 91, 55
3, 3552, Note_on_c, 1, 72, 108
3, 3556, Pitch_bend_c, 1, 8192
3, 3556, Control_c, 1, 1, 0
3, 3600, Note_off_c, 1, 72, 0
3, 3936, Note_on_c, 1, 69, 119
3, 3984, Note_off_c, 1, 69, 0
3, 4032, Note_on_c, 1, 69, 114
3, 4080, Note_off_c, 1, 69, 0
3, 4320, Note_on_c, 1, 62, 119
3, 4352, Note_off_c, 1, 62, 0
3, 4416, Note_on_c, 1, 62, 124
3, 4460, Note_off_c, 1, 62, 0
3, 4512, Note_on_c, 1, 59, 127
3, 4564, Note_off_c, 1, 59, 0
3, 4608, Note_on_c, 1, 59, 124
3, 4648, Note_off_c, 1, 59, 0
3, 16416, Note_on_c, 1, 59, 124
3, 16468, Note_off_c, 1, 59, 0
3, 28416, Note_on_c, 1, 67, 124
3, 28476, Note_off_c, 1, 67, 0
3, 28512, Note_on_c, 1, 67, 124
3, 28576, Note_off_c, 1, 67, 0
3, 28704, Note_on_c, 1, 59, 127
3, 28788, Note_off_c, 1, 59, 0
3, 34368, Note_on_c, 1, 65, 127
3, 34424, Note_off_c, 1, 65, 0
3, 34656, Note_on_c, 1, 65, 105
3, 34704, Note_off_c, 1, 65, 0
3, 34752, Note_on_c, 1, 65, 127
3, 34816, Note_off_c, 1, 65, 0
3, 35040, Note_on_c, 1, 62, 119
3, 35088, Note_off_c, 1, 62, 0
3, 35136, Note_on_c, 1, 62, 119
3, 35188, Note_off_c, 1, 62, 0
3, 35232, Note_on_c, 1, 59, 127
3, 35288, Note_off_c, 1, 59, 0
3, 46848, Note_on_c, 1, 65, 124
3, 46892, Note_off_c, 1, 65, 0
3, 46944, Note_on_c, 1, 65, 127
3, 47004, Note_off_c, 1, 65, 0
3, 59136, Note_on_c, 1, 69, 127
3, 59196, Note_off_c, 1, 69, 0
3, 59232, Note_on_c, 1, 69, 127
3, 59300, Note_off_c, 1, 69, 0
3, 59424, Note_on_c, 1, 65, 114
3, 59456, Note_off_c, 1, 65, 0
3, 59520, Note_on_c, 1, 65, 124
3, 59580, Note_off_c, 1, 65, 0
3, 59616, Note_on_c, 1, 62, 119
3, 59680, Note_off_c, 1, 62, 0
3, 65280, Note_on_c, 1, 72, 119
3, 65364, Note_off_c, 1, 72, 0
3, 65664, Note_on_c, 1, 64, 119
3, 65772, Note_off_c, 1, 64, 0
3, 71424, Note_on_c, 1, 71, 124
3, 71508, Note_off_c, 1, 71, 0
3, 71712, Note_on_c, 1, 64, 119
3, 71832, Note_off_c, 1, 64, 0
3, 77376, Note_on_c, 1, 65, 114
3, 77420, Note_off_c, 1, 65, 0
3, 77472, Note_on_c, 1, 65, 124
3, 77532, Note_off_c, 1, 65, 0
3, 77952, Note_on_c, 1, 65, 124
3, 77996, Note_off_c, 1, 65, 0
3, 78048, Note_on_c, 1, 65, 119
3, 78112, Note_off_c, 1, 65, 0
3, 78336, Note_on_c, 1, 59, 127
3, 78396, Note_off_c, 1, 59, 0
3, 84000, Note_on_c, 1, 62, 124
3, 84048, Note_off_c, 1, 62, 0
3, 89664, Note_on_c, 1, 69, 108
3, 89704, Note_off_c, 1, 69, 0
3, 89760, Note_on_c, 1, 69, 119
3, 89828, Note_off_c, 1, 69, 0
3, 90144, Note_on_c, 1, 65, 127
3, 90212, Note_off_c, 1, 65, 0
3, 90432, Note_on_c, 1, 62, 127
3, 90508, Note_off_c, 1, 62, 0
3, 101472, Note_on_c, 1, 69, 124
3, 101552, Note_off_c, 1, 69, 0
3, 101760, Note_on_c, 1, 64, 124
3, 101836, Note_off_c, 1, 64, 0
3, 102240, Note_on_c, 1, 60, 119
3, 102300, Note_off_c, 1, 60, 0
3, 102624, Note_on_c, 1, 55, 124
3, 102712, Note_off_c, 1, 55, 0
3, 114720, Note_on_c, 1, 67, 108
3, 114768, Note_off_c, 1, 67, 0
3, 120384, Note_on_c, 1, 72, 124
3, 120436, Note_off_c, 1, 72, 0
3, 120864, Note_on_c, 1, 65, 119
3, 120908, Note_off_c, 1, 65, 0
3, 120960, Note_on_c, 1, 65, 114
3, 121008, Note_off_c, 1, 65, 0
3, 126720, Note_on_c, 1, 69, 127
3, 126800, Note_off_c, 1, 69, 0
3, 127008, Note_on_c, 1, 59, 127
3, 127068, Note_off_c, 1, 59, 0
3, 132288, Note_on_c, 1, 62, 124
3, 132348, Note_off_c, 1, 62, 0
3, 132672, Note_on_c, 1, 65, 124
3, 132732, Note_off_c, 1, 65, 0
3, 133152, Note_on_c, 1, 59, 108
3, 133200, Note_off_c, 1, 59, 0
3, 133248, Note_on_c, 1, 59, 127
3, 133308, Note_off_c, 1, 59, 0
3, 139296, Note_on_c, 1, 59, 127
3, 139344, Note_off_c, 1, 59, 0
3, 144960, Note_on_c, 1, 69, 119
3, 145032, Note_off_c, 1, 69, 0
3, 145344, Note_on_c, 1, 59, 108
3, 145388, Note_off_c, 1, 59, 0
3, 145440, Note_on_c, 1, 59, 124
3, 145500, Note_off_c, 1, 59, 0
3, 151584, Note_on_c, 1, 59, 68
3, 151640, Note_off_c, 1, 59, 0
3, 158207, Control_c, 0, 127, 0
3, 158207, End_track
4, 0, Start_track
4, 0, Control_c, 2, 0, 0
4, 0, Control_c, 2, 32, 0
4, 0, Program_c, 2, 48
4, 0, Title_t, "STRINGS"
4, 0, Control_c, 2, 7, 127
4, 2132, Control_c, 2, 10, 64
4, 2132, Control_c, 2, 11, 127
4, 2132, Control_c, 2, 7, 105
4, 2136, Control_c, 2, 93, 0
4, 2136, Control_c, 2, 91, 60
4, 4620, Note_on_c, 2, 73, 68
4, 4620, Note_on_c, 2, 85, 68
4, 4624, Pitch_bend_c, 2, 8192
4, 4624, Control_c, 2, 1, 0
4, 5168, Note_off_c, 2, 85, 0
4, 5168, Note_off_c, 2, 73, 0
4, 5172, Note_on_c, 2, 75, 68
4, 5172, Note_on_c, 2, 87, 68
4, 5736, Note_off_c, 2, 87, 0
4, 5736, Note_off_c, 2, 75, 0
4, 5740, Note_on_c, 2, 68, 57
4, 5740, Note_on_c, 2, 80, 55
4, 6104, Note_off_c, 2, 80, 0
4, 6104, Note_off_c, 2, 68, 0
4, 6108, Note_on_c, 2, 75, 68
4, 6108, Note_on_c, 2, 87, 68
4, 6720, Note_off_c, 2, 87, 0
4, 6720, Note_off_c, 2, 75, 0
4, 6724, Note_on_c, 2, 77, 84
4, 6724, Note_on_c, 2, 89, 84
4, 7204, Note_off_c, 2, 89, 0
4, 7204, Note_off_c, 2, 77, 0
4, 7276, Note_on_c, 2, 80, 71
4, 7276, Note_on_c, 2, 92, 71
4, 7360, Note_off_c, 2, 92, 0
4, 7360, Note_off_c, 2, 80, 0
4, 7364, Note_on_c, 2, 78, 71
4, 7364, Note_on_c, 2, 90, 71
4, 7444, Note_off_c, 2, 90, 0
4, 7444, Note_off_c, 2, 78, 0
4, 7452, Note_on_c, 2, 77, 78
4, 7452, Note_on_c, 2, 89, 78
4, 7520, Note_off_c, 2, 89, 0
4, 7520, Note_off_c, 2, 77, 0
4, 7560, Note_on_c, 2, 73, 75
4, 7560, Note_on_c, 2, 85, 75
4, 8244, Note_off_c, 2, 85, 0
4, 8244, Note_off_c, 2, 73, 0
4, 8248, Note_on_c, 2, 75, 71
4, 8248, Note_on_c, 2, 87, 71
4, 8824, Note_off_c, 2, 87, 0
4, 8824, Note_off_c, 2, 75, 0
4, 8828, Note_on_c, 2, 68, 44
4, 8828, Note_on_c, 2, 80, 45
4, 9948, Note_off_c, 2, 80, 0
4, 9948, Note_off_c, 2, 68, 0
4, 10368, Note_on_c, 2, 80, 75
4, 10368, Note_on_c, 2, 92, 75
4, 10452, Note_off_c, 2, 92, 0
4, 10452, Note_off_c, 2, 80, 0
4, 10456, Note_on_c, 2, 78, 71
4, 10456, Note_on_c, 2, 90, 71
4, 10544, Note_off_c, 2, 90, 0
4, 10544, Note_off_c, 2, 78, 0
4, 10548, Note_on_c, 2, 77, 84
4, 10548, Note_on_c, 2, 89, 84
4, 10628, Note_off_c, 2, 89, 0
4, 10628, Note_off_c, 2, 77, 0
4, 10656, Note_on_c, 2, 73, 75
4, 10656, Note_on_c, 2, 85, 75
4, 11316, Note_off_c, 2, 85, 0
4, 11316, Note_off_c, 2, 73, 0
4, 11320, Note_on_c, 2, 75, 71
4, 11320, Note_on_c, 2, 87, 71
4, 11880, Note_off_c, 2, 87, 0
4, 11880, Note_off_c, 2, 75, 0
4, 11884, Note_on_c, 2, 68, 56
4, 11884, Note_on_c, 2, 80, 55
4, 12276, Note_off_c, 2, 80, 0
4, 12276, Note_off_c, 2, 68, 0
4, 12280, Note_on_c, 2, 75, 68
4, 12280, Note_on_c, 2, 87, 68
4, 12860, Note_off_c, 2, 87, 0
4, 12860, Note_off_c, 2, 75, 0
4, 12864, Note_on_c, 2, 77, 75
4, 12864, Note_on_c, 2, 89, 75
4, 13408, Note_off_c, 2, 89, 0
4, 13408, Note_off_c, 2, 77, 0
4, 13456, Note_on_c, 2, 80, 68
4, 13456, Note_on_c, 2, 92, 68
4, 13532, Note_off_c, 2, 92, 0
4, 13532, Note_off_c, 2, 80, 0
4, 13536, Note_on_c, 2, 78, 62
4, 13536, Note_on_c, 2, 90, 62
4, 13616, Note_off_c, 2, 90, 0
4, 13616, Note_off_c, 2, 78, 0
4, 13624, Note_on_c, 2, 77, 68
4, 13624, Note_on_c, 2, 89, 68
4, 13696, Note_off_c, 2, 89, 0
4, 13696, Note_off_c, 2, 77, 0
4, 13732, Note_on_c, 2, 73, 62
4, 13732, Note_on_c, 2, 85, 62
4, 14372, Note_off_c, 2, 85, 0
4, 14372, Note_off_c, 2, 73, 0
4, 14376, Note_on_c, 2, 75, 71
4, 14376, Note_on_c, 2, 87, 71
4, 14952, Note_off_c, 2, 87, 0
4, 14952, Note_off_c, 2, 75, 0
4, 14956, Note_on_c, 2, 68, 44
4, 14956, Note_on_c, 2, 80, 43
4, 16388, Note_off_c, 2, 80, 0
4, 16388, Note_off_c, 2, 68, 0
4, 35340, Note_on_c, 2, 73, 68
4, 35340, Note_on_c, 2, 85, 68
4, 35888, Note_off_c, 2, 85, 0
4, 35888, Note_off_c, 2, 73, 0
4, 35892, Note_on_c, 2, 75, 68
4, 35892, Note_on_c, 2, 87, 68
4, 36456, Note_off_c, 2, 87, 0
4, 36456, Note_off_c, 2, 75, 0
4, 36460, Note_on_c, 2, 68, 57
4, 36460, Note_on_c, 2, 80, 55
4, 36824, Note_off_c, 2, 80, 0
4, 36824, Note_off_c, 2, 68, 0
4, 36828, Note_on_c, 2, 75, 68
4, 36828, Note_on_c, 2, 87, 68
4, 37440, Note_off_c, 2, 87, 0
4, 37440, Note_off_c, 2, 75, 0
4, 37444, Note_on_c, 2, 77, 84
4, 37444, Note_on_c, 2, 89, 84
4, 37924, Note_off_c, 2, 89, 0
4, 37924, Note_off_c, 2, 77, 0
4, 37996, Note_on_c, 2, 80, 71
4, 37996, Note_on_c, 2, 92, 71
4, 38080, Note_off_c, 2, 92, 0
4, 38080, Note_off_c, 2, 80, 0
4, 38084, Note_on_c, 2, 78, 71
4, 38084, Note_on_c, 2, 90, 71
4, 38164, Note_off_c, 2, 90, 0
4, 38164, Note_off_c, 2, 78, 0
4, 38172, Note_on_c, 2, 77, 78
4, 38172, Note_on_c, 2, 89, 78
4, 38240, Note_off_c, 2, 89, 0
4, 38240, Note_off_c, 2, 77, 0
4, 38280, Note_on_c, 2, 73, 75
4, 38280, Note_on_c, 2, 85, 75
4, 38964, Note_off_c, 2, 85, 0
4, 38964, Note_off_c, 2, 73, 0
4, 38968, Note_on_c, 2, 75, 71
4, 38968, Note_on_c, 2, 87, 71
4, 39544, Note_off_c, 2, 87, 0
4, 39544, Note_off_c, 2, 75, 0
4, 39548, Note_on_c, 2, 68, 44
4, 39548, Note_on_c, 2, 80, 45
4, 40668, Note_off_c, 2, 80, 0
4, 40668, Note_off_c, 2, 68, 0
4, 41088, Note_on_c, 2, 80, 75
4, 41088, Note_on_c, 2, 92, 75
4, 41172, Note_off_c, 2, 92, 0
4, 41172, Note_off_c, 2, 80, 0
4, 41176, Note_on_c, 2, 78, 71
4, 41176, Note_on_c, 2, 90, 71
4, 41264, Note_off_c, 2, 90, 0
4, 41264, Note_off_c, 2, 78, 0
4, 41268, Note_on_c, 2, 77, 84
4, 41268, Note_on_c, 2, 89, 84
4, 41348, Note_off_c, 2, 89, 0
4, 41348, Note_off_c, 2, 77, 0
4, 41376, Note_on_c, 2, 73, 75
4, 41376, Note_on_c, 2, 85, 75
4, 42036, Note_off_c, 2, 85, 0
4, 42036, Note_off_c, 2, 73, 0
4, 42040, Note_on_c, 2, 75, 71
4, 42040, Note_on_c, 2, 87, 71
4, 42600, Note_off_c, 2, 87, 0
4, 42600, Note_off_c, 2, 75, 0
4, 42604, Note_on_c, 2, 68, 56
4, 42604, Note_on_c, 2, 80, 55
4, 42996, Note_off_c, 2, 80, 0
4, 42996, Note_off_c, 2, 68, 0
4, 43000, Note_on_c, 2, 75, 68
4, 43000, Note_on_c, 2, 87, 68
4, 43580, Note_off_c, 2, 87, 0
4, 43580, Note_off_c, 2, 75, 0
4, 43584, Note_on_c, 2, 77, 75
4, 43584, Note_on_c, 2, 89, 75
4, 44128, Note_off_c, 2, 89, 0
4, 44128, Note_off_c, 2, 77, 0
4, 44176, Note_on_c, 2, 80, 68
4, 44176, Note_on_c, 2, 92, 68
4, 44252, Note_off_c, 2, 92, 0
4, 44252, Note_off_c, 2, 80, 0
4, 44256, Note_on_c, 2, 78, 62
4, 44256, Note_on_c, 2, 90, 62
4, 44336, Note_off_c, 2, 90, 0
4, 44336, Note_off_c, 2, 78, 0
4, 44344, Note_on_c, 2, 77, 68
4, 44344, Note_on_c, 2, 89, 68
4, 44416, Note_off_c, 2, 89, 0
4, 44416, Note_off_c, 2, 77, 0
4, 44452, Note_on_c, 2, 73, 62
4, 44452, Note_on_c, 2, 85, 62
4, 45092, Note_off_c, 2, 85, 0
4, 45092, Note_off_c, 2, 73, 0
4, 45096, Note_on_c, 2, 75, 71
4, 45096, Note_on_c, 2, 87, 71
4, 45672, Note_off_c, 2, 87, 0
4, 45672, Note_off_c, 2, 75, 0
4, 45676, Note_on_c, 2, 68, 44
4, 45676, Note_on_c, 2, 80, 43
4, 47108, Note_off_c, 2, 80, 0
4, 47108, Note_off_c, 2, 68, 0
4, 66060, Note_on_c, 2, 73, 68
4, 66060, Note_on_c, 2, 85, 68
4, 66608, Note_off_c, 2, 85, 0
4, 66608, Note_off_c, 2, 73, 0
4, 66612, Note_on_c, 2, 75, 68
4, 66612, Note_on_c, 2, 87, 68
4, 67176, Note_off_c, 2, 87, 0
4, 67176, Note_off_c, 2, 75, 0
4, 67180, Note_on_c, 2, 68, 57
4, 67180, Note_on_c, 2, 80, 55
4, 67544, Note_off_c, 2, 80, 0
4, 67544, Note_off_c, 2, 68, 0
4, 67548, Note_on_c, 2, 75, 68
4, 67548, Note_on_c, 2, 87, 68
4, 68160, Note_off_c, 2, 87, 0
4, 68160, Note_off_c, 2, 75, 0
4, 68164, Note_on_c, 2, 77, 84
4, 68164, Note_on_c, 2, 89, 84
4, 68644, Note_off_c, 2, 89, 0
4, 68644, Note_off_c, 2, 77, 0
4, 68716, Note_on_c, 2, 80, 71
4, 68716, Note_on_c, 2, 92, 71
4, 68800, Note_off_c, 2, 92, 0
4, 68800, Note_off_c, 2, 80, 0
4, 68804, Note_on_c, 2, 78, 71
4, 68804, Note_on_c, 2, 90, 71
4, 68884, Note_off_c, 2, 90, 0
4, 68884, Note_off_c, 2, 78, 0
4, 68892, Note_on_c, 2, 77, 78
4, 68892, Note_on_c, 2, 89, 78
4, 68960, Note_off_c, 2, 89, 0
4, 68960, Note_off_c, 2, 77, 0
4, 69000, Note_on_c, 2, 73, 75
4, 69000, Note_on_c, 2, 85, 75
4, 69684, Note_off_c, 2, 85, 0
4, 69684, Note_off_c, 2, 73, 0
4, 69688, Note_on_c, 2, 75, 71
4, 69688, Note_on_c, 2, 87, 71
4, 70264, Note_off_c, 2, 87, 0
4, 70264, Note_off_c, 2, 75, 0
4, 70268, Note_on_c, 2, 68, 44
4, 70268, Note_on_c, 2, 80, 45
4, 71388, Note_off_c, 2, 80, 0
4, 71388, Note_off_c, 2, 68, 0
4, 71808, Note_on_c, 2, 80, 75
4, 71808, Note_on_c, 2, 92, 75
4, 71892, Note_off_c, 2, 92, 0
4, 71892, Note_off_c, 2, 80, 0
4, 71896, Note_on_c, 2, 78, 71
4, 71896, Note_on_c, 2, 90, 71
4, 71984, Note_off_c, 2, 90, 0
4, 71984, Note_off_c, 2, 78, 0
4, 71988, Note_on_c, 2, 77, 84
4, 71988, Note_on_c, 2, 89, 84
4, 72068, Note_off_c, 2, 89, 0
4, 72068, Note_off_c, 2, 77, 0
4, 72096, Note_on_c, 2, 73, 75
4, 72096, Note_on_c, 2, 85, 75
4, 72756, Note_off_c, 2, 85, 0
4, 72756, Note_off_c, 2, 73, 0
4, 72760, Note_on_c, 2, 75, 71
4, 72760, Note_on_c, 2, 87, 71
4, 73320, Note_off_c, 2, 87, 0
4, 73320, Note_off_c, 2, 75, 0
4, 73324, Note_on_c, 2, 68, 56
4, 73324, Note_on_c, 2, 80, 55
4, 73716, Note_off_c, 2, 80, 0
4, 73716, Note_off_c, 2, 68, 0
4, 73720, Note_on_c, 2, 75, 68
4, 73720, Note_on_c, 2, 87, 68
4, 74300, Note_off_c, 2, 87, 0
4, 74300, Note_off_c, 2, 75, 0
4, 74304, Note_on_c, 2, 77, 75
4, 74304, Note_on_c, 2, 89, 75
4, 74848, Note_off_c, 2, 89, 0
4, 74848, Note_off_c, 2, 77, 0
4, 74896, Note_on_c, 2, 80, 68
4, 74896, Note_on_c, 2, 92, 68
4, 74972, Note_off_c, 2, 92, 0
4, 74972, Note_off_c, 2, 80, 0
4, 74976, Note_on_c, 2, 78, 62
4, 74976, Note_on_c, 2, 90, 62
4, 75056, Note_off_c, 2, 90, 0
4, 75056, Note_off_c, 2, 78, 0
4, 75064, Note_on_c, 2, 77, 68
4, 75064, Note_on_c, 2, 89, 68
4, 75136, Note_off_c, 2, 89, 0
4, 75136, Note_off_c, 2, 77, 0
4, 75172, Note_on_c, 2, 73, 62
4, 75172, Note_on_c, 2, 85, 62
4, 75812, Note_off_c, 2, 85, 0
4, 75812, Note_off_c, 2, 73, 0
4, 75816, Note_on_c, 2, 75, 71
4, 75816, Note_on_c, 2, 87, 71
4, 76392, Note_off_c, 2, 87, 0
4, 76392, Note_off_c, 2, 75, 0
4, 76396, Note_on_c, 2, 68, 44
4, 76396, Note_on_c, 2, 80, 43
4, 77828, Note_off_c, 2, 80, 0
4, 77828, Note_off_c, 2, 68, 0
4, 78348, Note_on_c, 2, 73, 68
4, 78348, Note_on_c, 2, 85, 68
4, 78896, Note_off_c, 2, 85, 0
4, 78896, Note_off_c, 2, 73, 0
4, 78900, Note_on_c, 2, 75, 68
4, 78900, Note_on_c, 2, 87, 68
4, 79464, Note_off_c, 2, 87, 0
4, 79464, Note_off_c, 2, 75, 0
4, 79468, Note_on_c, 2, 68, 57
4, 79468, Note_on_c, 2, 80, 55
4, 79832, Note_off_c, 2, 80, 0
4, 79832, Note_off_c, 2, 68, 0
4, 79836, Note_on_c, 2, 75, 68
4, 79836, Note_on_c, 2, 87, 68
4, 80448, Note_off_c, 2, 87, 0
4, 80448, Note_off_c, 2, 75, 0
4, 80452, Note_on_c, 2, 77, 84
4, 80452, Note_on_c, 2, 89, 84
4, 80932, Note_off_c, 2, 89, 0
4, 80932, Note_off_c, 2, 77, 0
4, 81004, Note_on_c, 2, 80, 71
4, 81004, Note_on_c, 2, 92, 71
4, 81088, Note_off_c, 2, 92, 0
4, 81088, Note_off_c, 2, 80, 0
4, 81092, Note_on_c, 2, 78, 71
4, 81092, Note_on_c, 2, 90, 71
4, 81172, Note_off_c, 2, 90, 0
4, 81172, Note_off_c, 2, 78, 0
4, 81180, Note_on_c, 2, 77, 78
4, 81180, Note_on_c, 2, 89, 78
4, 81248, Note_off_c, 2, 89, 0
4, 81248, Note_off_c, 2, 77, 0
4, 81288, Note_on_c, 2, 73, 75
4, 81288, Note_on_c, 2, 85, 75
4, 81972, Note_off_c, 2, 85, 0
4, 81972, Note_off_c, 2, 73, 0
4, 81976, Note_on_c, 2, 75, 71
4, 81976, Note_on_c, 2, 87, 71
4, 82552, Note_off_c, 2, 87, 0
4, 82552, Note_off_c, 2, 75, 0
4, 82556, Note_on_c, 2, 68, 44
4, 82556, Note_on_c, 2, 80, 45
4, 83676, Note_off_c, 2, 80, 0
4, 83676, Note_off_c, 2, 68, 0
4, 84096, Note_on_c, 2, 80, 75
4, 84096, Note_on_c, 2, 92, 75
4, 84180, Note_off_c, 2, 92, 0
4, 84180, Note_off_c, 2, 80, 0
4, 84184, Note_on_c, 2, 78, 71
4, 84184, Note_on_c, 2, 90, 71
4, 84272, Note_off_c, 2, 90, 0
4, 84272, Note_off_c, 2, 78, 0
4, 84276, Note_on_c, 2, 77, 84
4, 84276, Note_on_c, 2, 89, 84
4, 84356, Note_off_c, 2, 89, 0
4, 84356, Note_off_c, 2, 77, 0
4, 84384, Note_on_c, 2, 73, 75
4, 84384, Note_on_c, 2, 85, 75
4, 85044, Note_off_c, 2, 85, 0
4, 85044, Note_off_c, 2, 73, 0
4, 85048, Note_on_c, 2, 75, 71
4, 85048, Note_on_c, 2, 87, 71
4, 85608, Note_off_c, 2, 87, 0
4, 85608, Note_off_c, 2, 75, 0
4, 85612, Note_on_c, 2, 68, 56
4, 85612, Note_on_c, 2, 80, 55
4, 86004, Note_off_c, 2, 80, 0
4, 86004, Note_off_c, 2, 68, 0
4, 86008, Note_on_c, 2, 75, 68
4, 86008, Note_on_c, 2, 87, 68
4, 86588, Note_off_c, 2, 87, 0
4, 86588, Note_off_c, 2, 75, 0
4, 86592, Note_on_c, 2, 77, 75
4, 86592, Note_on_c, 2, 89, 75
4, 87136, Note_off_c, 2, 89, 0
4, 87136, Note_off_c, 2, 77, 0
4, 87184, Note_on_c, 2, 80, 68
4, 87184, Note_on_c, 2, 92, 68
4, 87260, Note_off_c, 2, 92, 0
4, 87260, Note_off_c, 2, 80, 0
4, 87264, Note_on_c, 2, 78, 62
4, 87264, Note_on_c, 2, 90, 62
4, 87344, Note_off_c, 2, 90, 0
4, 87344, Note_off_c, 2, 78, 0
4, 87352, Note_on_c, 2, 77, 68
4, 87352, Note_on_c, 2, 89, 68
4, 87424, Note_off_c, 2, 89, 0
4, 87424, Note_off_c, 2, 77, 0
4, 87460, Note_on_c, 2, 73, 62
4, 87460, Note_on_c, 2, 85, 62
4, 88100, Note_off_c, 2, 85, 0
4, 88100, Note_off_c, 2, 73, 0
4, 88104, Note_on_c, 2, 75, 71
4, 88104, Note_on_c, 2, 87, 71
4, 88680, Note_off_c, 2, 87, 0
4, 88680, Note_off_c, 2, 75, 0
4, 88684, Note_on_c, 2, 68, 44
4, 88684, Note_on_c, 2, 80, 43
4, 90116, Note_off_c, 2, 80, 0
4, 90116, Note_off_c, 2, 68, 0
4, 115208, Note_on_c, 2, 73, 48
4, 115208, Note_on_c, 2, 85, 50
4, 116524, Note_on_c, 2, 87, 52
4, 116536, Note_on_c, 2, 75, 44
4, 116544, Note_off_c, 2, 85, 0
4, 116544, Note_off_c, 2, 73, 0
4, 117484, Note_on_c, 2, 89, 65
4, 117488, Note_off_c, 2, 87, 0
4, 117492, Note_on_c, 2, 77, 61
4, 117496, Note_off_c, 2, 75, 0
4, 118268, Note_on_c, 2, 70, 48
4, 118268, Note_on_c, 2, 82, 50
4, 118272, Note_off_c, 2, 89, 0
4, 118272, Note_off_c, 2, 77, 0
4, 119636, Note_off_c, 2, 82, 0
4, 119644, Note_off_c, 2, 70, 0
4, 121356, Note_on_c, 2, 73, 68
4, 121356, Note_on_c, 2, 85, 68
4, 121904, Note_off_c, 2, 85, 0
4, 121904, Note_off_c, 2, 73, 0
4, 121908, Note_on_c, 2, 75, 68
4, 121908, Note_on_c, 2, 87, 68
4, 122472, Note_off_c, 2, 87, 0
4, 122472, Note_off_c, 2, 75, 0
4, 122476, Note_on_c, 2, 68, 57
4, 122476, Note_on_c, 2, 80, 55
4, 122840, Note_off_c, 2, 80, 0
4, 122840, Note_off_c, 2, 68, 0
4, 122844, Note_on_c, 2, 75, 68
4, 122844, Note_on_c, 2, 87, 68
4, 123456, Note_off_c, 2, 87, 0
4, 123456, Note_off_c, 2, 75, 0
4, 123460, Note_on_c, 2, 77, 84
4, 123460, Note_on_c, 2, 89, 84
4, 123940, Note_off_c, 2, 89, 0
4, 123940, Note_off_c, 2, 77, 0
4, 124012, Note_on_c, 2, 80, 71
4, 124012, Note_on_c, 2, 92, 71
4, 124096, Note_off_c, 2, 92, 0
4, 124096, Note_off_c, 2, 80, 0
4, 124100, Note_on_c, 2, 78, 71
4, 124100, Note_on_c, 2, 90, 71
4, 124180, Note_off_c, 2, 90, 0
4, 124180, Note_off_c, 2, 78, 0
4, 124188, Note_on_c, 2, 77, 78
4, 124188, Note_on_c, 2, 89, 78
4, 124256, Note_off_c, 2, 89, 0
4, 124256, Note_off_c, 2, 77, 0
4, 124296, Note_on_c, 2, 73, 75
4, 124296, Note_on_c, 2, 85, 75
4, 124980, Note_off_c, 2, 85, 0
4, 124980, Note_off_c, 2, 73, 0
4, 124984, Note_on_c, 2, 75, 71
4, 124984, Note_on_c, 2, 87, 71
4, 125560, Note_off_c, 2, 87, 0
4, 125560, Note_off_c, 2, 75, 0
4, 125564, Note_on_c, 2, 68, 44
4, 125564, Note_on_c, 2, 80, 45
4, 126684, Note_off_c, 2, 80, 0
4, 126684, Note_off_c, 2, 68, 0
4, 127104, Note_on_c, 2, 80, 75
4, 127104, Note_on_c, 2, 92, 75
4, 127188, Note_off_c, 2, 92, 0
4, 127188, Note_off_c, 2, 80, 0
4, 127192, Note_on_c, 2, 78, 71
4, 127192, Note_on_c, 2, 90, 71
4, 127280, Note_off_c, 2, 90, 0
4, 127280, Note_off_c, 2, 78, 0
4, 127284, Note_on_c, 2, 77, 84
4, 127284, Note_on_c, 2, 89, 84
4, 127364, Note_off_c, 2, 89, 0
4, 127364, Note_off_c, 2, 77, 0
4, 127392, Note_on_c, 2, 73, 75
4, 127392, Note_on_c, 2, 85, 75
4, 128052, Note_off_c, 2, 85, 0
4, 128052, Note_off_c, 2, 73, 0
4, 128056, Note_on_c, 2, 75, 71
4, 128056, Note_on_c, 2, 87, 71
4, 128616, Note_off_c, 2, 87, 0
4, 128616, Note_off_c, 2, 75, 0
4, 128620, Note_on_c, 2, 68, 56
4, 128620, Note_on_c, 2, 80, 55
4, 129012, Note_off_c, 2, 80, 0
4, 129012, Note_off_c, 2, 68, 0
4, 129016, Note_on_c, 2, 75, 68
4, 129016, Note_on_c, 2, 87, 68
4, 129596, Note_off_c, 2, 87, 0
4, 129596, Note_off_c, 2, 75, 0
4, 129600, Note_on_c, 2, 77, 75
4, 129600, Note_on_c, 2, 89, 75
4, 130144, Note_off_c, 2, 89, 0
4, 130144, Note_off_c, 2, 77, 0
4, 130192, Note_on_c, 2, 80, 68
4, 130192, Note_on_c, 2, 92, 68
4, 130268, Note_off_c, 2, 92, 0
4, 130268, Note_off_c, 2, 80, 0
4, 130272, Note_on_c, 2, 78, 62
4, 130272, Note_on_c, 2, 90, 62
4, 130352, Note_off_c, 2, 90, 0
4, 130352, Note_off_c, 2, 78, 0
4, 130360, Note_on_c, 2, 77, 68
4, 130360, Note_on_c, 2, 89, 68
4, 130432, Note_off_c, 2, 89, 0
4, 130432, Note_off_c, 2, 77, 0
4, 130468, Note_on_c, 2, 73, 62
4, 130468, Note_on_c, 2, 85, 62
4, 131108, Note_off_c, 2, 85, 0
4, 131108, Note_off_c, 2, 73, 0
4, 131112, Note_on_c, 2, 75, 71
4, 131112, Note_on_c, 2, 87, 71
4, 131688, Note_off_c, 2, 87, 0
4, 131688, Note_off_c, 2, 75, 0
4, 131692, Note_on_c, 2, 68, 44
4, 131692, Note_on_c, 2, 80, 43
4, 133124, Note_off_c, 2, 80, 0
4, 133124, Note_off_c, 2, 68, 0
4, 133644, Note_on_c, 2, 73, 68
4, 133644, Note_on_c, 2, 85, 68
4, 134192, Note_off_c, 2, 85, 0
4, 134192, Note_off_c, 2, 73, 0
4, 134196, Note_on_c, 2, 75, 68
4, 134196, Note_on_c, 2, 87, 68
4, 134760, Note_off_c, 2, 87, 0
4, 134760, Note_off_c, 2, 75, 0
4, 134764, Note_on_c, 2, 68, 57
4, 134764, Note_on_c, 2, 80, 55
4, 135128, Note_off_c, 2, 80, 0
4, 135128, Note_off_c, 2, 68, 0
4, 135132, Note_on_c, 2, 75, 68
4, 135132, Note_on_c, 2, 87, 68
4, 135744, Note_off_c, 2, 87, 0
4, 135744, Note_off_c, 2, 75, 0
4, 135748, Note_on_c, 2, 77, 84
4, 135748, Note_on_c, 2, 89, 84
4, 136228, Note_off_c, 2, 89, 0
4, 136228, Note_off_c, 2, 77, 0
4, 136300, Note_on_c, 2, 80, 71
4, 136300, Note_on_c, 2, 92, 71
4, 136384, Note_off_c, 2, 92, 0
4, 136384, Note_off_c, 2, 80, 0
4, 136388, Note_on_c, 2, 78, 71
4, 136388, Note_on_c, 2, 90, 71
4, 136468, Note_off_c, 2, 90, 0
4, 136468, Note_off_c, 2, 78, 0
4, 136476, Note_on_c, 2, 77, 78
4, 136476, Note_on_c, 2, 89, 78
4, 136544, Note_off_c, 2, 89, 0
4, 136544, Note_off_c, 2, 77, 0
4, 136584, Note_on_c, 2, 73, 75
4, 136584, Note_on_c, 2, 85, 75
4, 137268, Note_off_c, 2, 85, 0
4, 137268, Note_off_c, 2, 73, 0
4, 137272, Note_on_c, 2, 75, 71
4, 137272, Note_on_c, 2, 87, 71
4, 137848, Note_off_c, 2, 87, 0
4, 137848, Note_off_c, 2, 75, 0
4, 137852, Note_on_c, 2, 68, 44
4, 137852, Note_on_c, 2, 80, 45
4, 138972, Note_off_c, 2, 80, 0
4, 138972, Note_off_c, 2, 68, 0
4, 139392, Note_on_c, 2, 80, 75
4, 139392, Note_on_c, 2, 92, 75
4, 139476, Note_off_c, 2, 92, 0
4, 139476, Note_off_c, 2, 80, 0
4, 139480, Note_on_c, 2, 78, 71
4, 139480, Note_on_c, 2, 90, 71
4, 139568, Note_off_c, 2, 90, 0
4, 139568, Note_off_c, 2, 78, 0
4, 139572, Note_on_c, 2, 77, 84
4, 139572, Note_on_c, 2, 89, 84
4, 139652, Note_off_c, 2, 89, 0
4, 139652, Note_off_c, 2, 77, 0
4, 139680, Note_on_c, 2, 73, 75
4, 139680, Note_on_c, 2, 85, 75
4, 140340, Note_off_c, 2, 85, 0
4, 140340, Note_off_c, 2, 73, 0
4, 140344, Note_on_c, 2, 75, 71
4, 140344, Note_on_c, 2, 87, 71
4, 140904, Note_off_c, 2, 87, 0
4, 140904, Note_off_c, 2, 75, 0
4, 140908, Note_on_c, 2, 68, 56
4, 140908, Note_on_c, 2, 80, 55
4, 141300, Note_off_c, 2, 80, 0
4, 141300, Note_off_c, 2, 68, 0
4, 141304, Note_on_c, 2, 75, 68
4, 141304, Note_on_c, 2, 87, 68
4, 141884, Note_off_c, 2, 87, 0
4, 141884, Note_off_c, 2, 75, 0
4, 141888, Note_on_c, 2, 77, 75
4, 141888, Note_on_c, 2, 89, 75
4, 142432, Note_off_c, 2, 89, 0
4, 142432, Note_off_c, 2, 77, 0
4, 142480, Note_on_c, 2, 80, 68
4, 142480, Note_on_c, 2, 92, 68
4, 142556, Note_off_c, 2, 92, 0
4, 142556, Note_off_c, 2, 80, 0
4, 142560, Note_on_c, 2, 78, 62
4, 142560, Note_on_c, 2, 90, 62
4, 142640, Note_off_c, 2, 90, 0
4, 142640, Note_off_c, 2, 78, 0
4, 142648, Note_on_c, 2, 77, 68
4, 142648, Note_on_c, 2, 89, 68
4, 142720, Note_off_c, 2, 89, 0
4, 142720, Note_off_c, 2, 77, 0
4, 142756, Note_on_c, 2, 73, 62
4, 142756, Note_on_c, 2, 85, 62
4, 143396, Note_off_c, 2, 85, 0
4, 143396, Note_off_c, 2, 73, 0
4, 143400, Note_on_c, 2, 75, 71
4, 143400, Note_on_c, 2, 87, 71
4, 143976, Note_off_c, 2, 87, 0
4, 143976, Note_off_c, 2, 75, 0
4, 143980, Note_on_c, 2, 68, 44
4, 143980, Note_on_c, 2, 80, 43
4, 145412, Note_off_c, 2, 80, 0
4, 145412, Note_off_c, 2, 68, 0
4, 145932, Note_on_c, 2, 73, 68
4, 145932, Note_on_c, 2, 85, 68
4, 146480, Note_off_c, 2, 85, 0
4, 146480, Note_off_c, 2, 73, 0
4, 146484, Note_on_c, 2, 75, 64
4, 146484, Note_on_c, 2, 87, 64
4, 147048, Note_off_c, 2, 87, 0
4, 147048, Note_off_c, 2, 75, 0
4, 147052, Note_on_c, 2, 68, 50
4, 147052, Note_on_c, 2, 80, 48
4, 147416, Note_off_c, 2, 80, 0
4, 147416, Note_off_c, 2, 68, 0
4, 147420, Note_on_c, 2, 75, 57
4, 147420, Note_on_c, 2, 87, 57
4, 148032, Note_off_c, 2, 87, 0
4, 148032, Note_off_c, 2, 75, 0
4, 148036, Note_on_c, 2, 77, 65
4, 148036, Note_on_c, 2, 89, 65
4, 148516, Note_off_c, 2, 89, 0
4, 148516, Note_off_c, 2, 77, 0
4, 148588, Note_on_c, 2, 80, 50
4, 148588, Note_on_c, 2, 92, 50
4, 148672, Note_off_c, 2, 92, 0
4, 148672, Note_off_c, 2, 80, 0
4, 148676, Note_on_c, 2, 78, 49
4, 148676, Note_on_c, 2, 90, 49
4, 148756, Note_off_c, 2, 90, 0
4, 148756, Note_off_c, 2, 78, 0
4, 148764, Note_on_c, 2, 77, 53
4, 148764, Note_on_c, 2, 89, 53
4, 148832, Note_off_c, 2, 89, 0
4, 148832, Note_off_c, 2, 77, 0
4, 148872, Note_on_c, 2, 73, 50
4, 148872, Note_on_c, 2, 85, 50
4, 149556, Note_off_c, 2, 85, 0
4, 149556, Note_off_c, 2, 73, 0
4, 149560, Note_on_c, 2, 75, 41
4, 149560, Note_on_c, 2, 87, 41
4, 150136, Note_off_c, 2, 87, 0
4, 150136, Note_off_c, 2, 75, 0
4, 150140, Note_on_c, 2, 68, 19
4, 150140, Note_on_c, 2, 80, 20
4, 151260, Note_off_c, 2, 80, 0
4, 151260, Note_off_c, 2, 68, 0
4, 151680, Note_on_c, 2, 80, 25
4, 151680, Note_on_c, 2, 92, 25
4, 151764, Note_off_c, 2, 92, 0
4, 151764, Note_off_c, 2, 80, 0
4, 151768, Note_on_c, 2, 78, 22
4, 151768, Note_on_c, 2, 90, 22
4, 151856, Note_off_c, 2, 90, 0
4, 151856, Note_off_c, 2, 78, 0
4, 151860, Note_on_c, 2, 77, 27
4, 151860, Note_on_c, 2, 89, 27
4, 151940, Note_off_c, 2, 89, 0
4, 151940, Note_off_c, 2, 77, 0
4, 151968, Note_on_c, 2, 73, 22
4, 151968, Note_on_c, 2, 85, 22
4, 152628, Note_off_c, 2, 85, 0
4, 152628, Note_off_c, 2, 73, 0
4, 152632, Note_on_c, 2, 75, 15
4, 152632, Note_on_c, 2, 87, 15
4, 153192, Note_off_c, 2, 87, 0
4, 153192, Note_off_c, 2, 75, 0
4, 153196, Note_on_c, 2, 68, 5
4, 153196, Note_on_c, 2, 80, 5
4, 153588, Note_off_c, 2, 80, 0
4, 153588, Note_off_c, 2, 68, 0
4, 153592, Note_on_c, 2, 75, 6
4, 153592, Note_on_c, 2, 87, 6
4, 154172, Note_off_c, 2, 87, 0
4, 154172, Note_off_c, 2, 75, 0
4, 154176, Note_on_c, 2, 77, 3
4, 154176, Note_on_c, 2, 89, 3
4, 154720, Note_off_c, 2, 89, 0
4, 154720, Note_off_c, 2, 77, 0
4, 154768, Note_on_c, 2, 80, 1
4, 154768, Note_on_c, 2, 92, 1
4, 154844, Note_off_c, 2, 92, 0
4, 154844, Note_off_c, 2, 80, 0
4, 154848, Note_on_c, 2, 78, 1
4, 154848, Note_on_c, 2, 90, 1
4, 154928, Note_off_c, 2, 90, 0
4, 154928, Note_off_c, 2, 78, 0
4, 154936, Note_on_c, 2, 77, 1
4, 154936, Note_on_c, 2, 89, 1
4, 155008, Note_off_c, 2, 89, 0
4, 155008, Note_off_c, 2, 77, 0
4, 155044, Note_on_c, 2, 73, 1
4, 155044, Note_on_c, 2, 85, 1
4, 155684, Note_off_c, 2, 85, 0
4, 155684, Note_off_c, 2, 73, 0
4, 155688, Note_on_c, 2, 75, 1
4, 155688, Note_on_c, 2, 87, 1
4, 156280, Note_off_c, 2, 87, 0
4, 156280, Note_off_c, 2, 75, 0
4, 158207, Control_c, 0, 127, 0
4, 158207, End_track
0, 0, End_of_file